<svg width="31" height="32" viewBox="0 0 31 32" fill="none" xmlns="http://www.w3.org/2000/svg">
<path d="M28.8203 3H2.17969C1.73022 3.00051 1.29929 3.18505 0.981469 3.51313C0.663644 3.84121 0.484872 4.28603 0.484375 4.75V23.25C0.484872 23.714 0.663644 24.1588 0.981469 24.4869C1.29929 24.8149 1.73022 24.9995 2.17969 25H12.0028L11.7122 26.5H9.6875C9.55904 26.5 9.43583 26.5527 9.34499 26.6464C9.25416 26.7402 9.20312 26.8674 9.20312 27V28.5C9.20312 28.6326 9.25416 28.7598 9.34499 28.8536C9.43583 28.9473 9.55904 29 9.6875 29H21.3125C21.441 29 21.5642 28.9473 21.655 28.8536C21.7458 28.7598 21.7969 28.6326 21.7969 28.5V27C21.7969 26.8674 21.7458 26.7402 21.655 26.6464C21.5642 26.5527 21.441 26.5 21.3125 26.5H19.2878L18.9972 25H28.8203C29.2698 24.9995 29.7007 24.8149 30.0185 24.4869C30.3364 24.1588 30.5151 23.714 30.5156 23.25V4.75C30.5151 4.28603 30.3364 3.84121 30.0185 3.51313C29.7007 3.18505 29.2698 3.00051 28.8203 3ZM20.8281 27.5V28H10.1719V27.5H20.8281ZM12.7003 26.5L12.9909 25H18.0091L18.2997 26.5H12.7003ZM29.5469 23.25C29.5467 23.4489 29.4701 23.6395 29.3339 23.7801C29.1977 23.9208 29.013 23.9998 28.8203 24H2.17969C1.98704 23.9998 1.80233 23.9208 1.66611 23.7801C1.52989 23.6395 1.45329 23.4489 1.45312 23.25V22H29.5469V23.25ZM29.5469 21H1.45312V4.75C1.45329 4.55114 1.52989 4.36047 1.66611 4.21985C1.80233 4.07924 1.98704 4.00017 2.17969 4H28.8203C29.013 4.00017 29.1977 4.07924 29.3339 4.21985C29.4701 4.36047 29.5467 4.55114 29.5469 4.75V21Z" fill="white"/>
<path d="M15.9844 22.5H15.0156C14.8872 22.5 14.764 22.5527 14.6731 22.6464C14.5823 22.7402 14.5312 22.8674 14.5312 23C14.5312 23.1326 14.5823 23.2598 14.6731 23.3536C14.764 23.4473 14.8872 23.5 15.0156 23.5H15.9844C16.1128 23.5 16.236 23.4473 16.3269 23.3536C16.4177 23.2598 16.4688 23.1326 16.4688 23C16.4688 22.8674 16.4177 22.7402 16.3269 22.6464C16.236 22.5527 16.1128 22.5 15.9844 22.5Z" fill="white"/>
</svg>
